<?xml version="1.0" encoding="UTF-8"?>
<svg width="128px" height="128px" viewBox="0 0 128 128" version="1.1" xmlns="http://www.w3.org/2000/svg" xmlns:xlink="http://www.w3.org/1999/xlink">
    <title>logo128</title>
    <g id="logo128" stroke="none" fill="none" fill-rule="evenodd">
        <path d="M64,0 C99.346224,0 128,28.653776 128,64 C128,99.346224 99.346224,128 64,128 C28.653776,128 0,99.346224 0,64 C0,28.653776 28.653776,0 64,0 Z M64,7 C32.5197693,7 7,32.5197693 7,64 C7,95.4802307 32.5197693,121 64,121 C95.4802307,121 121,95.4802307 121,64 C121,32.5197693 95.4802307,7 64,7 Z" id="形状结合" fill="#8F3421"></path>
        <path d="M81.2787862,58.6470588 C82.980821,58.6470588 84.3579255,59.8853183 84.3579255,61.4125759 C84.3579255,62.9398334 82.980821,64.1780929 81.2787862,64.1780929 L39.452791,64.1780929 L39.452791,92.3357298 L50.4798919,86.8678144 C60.111727,82.0927852 71.815141,82.4831987 81.029265,87.8794851 L94.9400732,95.9079594 C96.3685032,96.7341749 96.7834507,98.4451147 95.8631438,99.7291174 C95.2768479,100.551432 94.2846852,101 93.2712026,101 C92.6999095,101 92.125458,100.858515 91.6082542,100.561361 L77.6824431,92.5222489 C70.3689444,88.2372754 61.0920454,87.9252284 53.4567749,91.7105719 L37.8616984,99.4429561 C36.9117806,99.9184733 35.7478746,99.9021617 34.8098012,99.4039502 C33.8685692,98.9057387 33.2941176,98.0008023 33.2941176,97.0217546 L33.2941176,61.4125759 C33.2941176,59.8853183 34.6712221,58.6470588 36.3732569,58.6470588 L81.2787862,58.6470588 Z M63.4360895,37 C65.2209076,37 66.6815395,38.4285869 66.6815395,40.1746376 L66.681411,42.6125558 C66.6874417,42.9220396 66.8269394,44.6242002 69.166169,44.6242002 L79.3539073,44.6242002 C84.9954636,44.6421404 95.704372,47.9423595 96.3268253,61.0898051 C96.9464874,74.18109 86.3879088,78.749214 80.7176423,79.334611 L80.5553499,79.3521612 L47.6981093,79.3529412 C45.9810792,79.3529412 44.5882353,77.9926051 44.5882353,76.3112952 C44.5882353,74.6299853 45.9810792,73.2696492 47.6981093,73.2696492 L80.200061,73.2688692 C81.7532036,73.0609967 90.5899671,71.4299974 90.1130586,61.3690484 C89.6241875,51.028466 80.4137926,50.7106122 79.3662687,50.7078822 L47.6981093,50.7082722 C45.9810792,50.7082722 44.5882353,49.3479361 44.5882353,47.6666262 C44.5882353,45.9853163 45.9810792,44.6245902 47.6981093,44.6245902 L57.7056113,44.6242002 C60.044841,44.6242002 60.1843386,42.9220396 60.1903693,42.6125558 L60.1902408,40.1746376 C60.1902408,38.4285869 61.6508727,37 63.4360895,37 Z M82.4269825,29.2352502 C86.6627838,32.8135309 90.8221691,36.3789012 97.1996493,36.6416458 C97.3188799,36.6465618 97.4378736,36.6514524 97.5563712,36.6565818 L97.9101162,36.6729509 C100.313659,36.7933164 102.399737,37.1251624 101.934593,39.9460162 C101.461465,42.8159683 98.9527451,42.8808694 95.2294998,42.2301143 C88.707317,41.9185195 83.2760938,38.1800797 78.1070425,33.8010038 C66.8104885,24.2308911 56.2691519,24.1558711 45.2876105,33.8194971 C40.1360372,38.3524513 34.4869474,41.6194861 27.1306926,42.4987906 C24.9251981,42.762582 22.6469459,42.9694977 22.1193507,40.3772941 C21.5657415,37.6587777 22.9412287,36.6768877 26.1799643,36.625246 C32.570858,36.5233584 36.7867423,32.9258865 40.9701092,29.3046873 C53.7197856,18.2669735 69.3883075,18.2198679 82.4269825,29.2352502 Z" id="Combined-Shape" fill="#8F3421"></path>
    </g>
</svg>